<?xml version="1.0" encoding="UTF-8" standalone="no"?>
<svg
   xmlns:dc="http://purl.org/dc/elements/1.1/"
   xmlns:cc="http://creativecommons.org/ns#"
   xmlns:rdf="http://www.w3.org/1999/02/22-rdf-syntax-ns#"
   xmlns:svg="http://www.w3.org/2000/svg"
   xmlns="http://www.w3.org/2000/svg"
   xmlns:sodipodi="http://sodipodi.sourceforge.net/DTD/sodipodi-0.dtd"
   xmlns:inkscape="http://www.inkscape.org/namespaces/inkscape"
   viewBox="0 0 48 48"
   version="1.1"
   width="50px"
   height="50px"
   id="svg9"
   sodipodi:docname="paypal.svg"
   inkscape:version="0.92.3 (2405546, 2018-03-11)">
  <metadata
     id="metadata15">
    <rdf:RDF>
      <cc:Work
         rdf:about="">
        <dc:format>image/svg+xml</dc:format>
        <dc:type
           rdf:resource="http://purl.org/dc/dcmitype/StillImage" />
      </cc:Work>
    </rdf:RDF>
  </metadata>
  <defs
     id="defs13" />
  <sodipodi:namedview
     pagecolor="#ffffff"
     bordercolor="#666666"
     borderopacity="1"
     objecttolerance="10"
     gridtolerance="10"
     guidetolerance="10"
     inkscape:pageopacity="0"
     inkscape:pageshadow="2"
     inkscape:window-width="1920"
     inkscape:window-height="1027"
     id="namedview11"
     showgrid="false"
     inkscape:zoom="13.350176"
     inkscape:cx="18.50101"
     inkscape:cy="24.895746"
     inkscape:window-x="-8"
     inkscape:window-y="-8"
     inkscape:window-maximized="1"
     inkscape:current-layer="svg9" />
  <g
     id="surface1"
     transform="matrix(1.3333347,0,0,1.3333333,-6.6718815,-7.9999986)">
    <path
       style="fill:#1565c0"
       d="m 18.699219,13.765625 0.0039,0.0039 C 18.808594,13.324219 19.1875,13 19.660156,13 h 13.472657 c 0.01563,0 0.03125,-0.0078 0.05078,-0.0078 C 32.894531,8.214844 28.886719,6 25.351563,6 H 11.878906 C 11.402344,6 11.027344,6.335938 10.921875,6.777344 L 10.917969,6.773438 5.027344,33.8125 h 0.015625 c -0.015625,0.06641 -0.039063,0.125 -0.039063,0.195313 0,0.554687 0.445313,0.992187 1,0.992187 h 8.070313 z"
       id="path2"
       inkscape:connector-curvature="0" />
    <path
       style="fill:#039be5"
       d="m 33.183594,12.992188 c 0.05078,0.878906 -0.0039,1.832031 -0.230469,2.882812 -1.28125,5.996094 -5.910156,9.117188 -11.632812,9.117188 0,0 -3.472657,0 -4.3125,0 -0.523438,0 -0.769532,0.304687 -0.882813,0.539062 l -1.738281,8.046875 -0.304688,1.429688 h -0.0078 L 12.8125,40.804688 h 0.01172 c -0.01172,0.06641 -0.03906,0.125 -0.03906,0.195312 0,0.554688 0.449219,1 1,1 h 7.332032 l 0.01563,-0.01172 c 0.472656,-0.0039 0.847656,-0.34375 0.945312,-0.785156 l 0.01563,-0.01563 1.8125,-8.417969 c 0,0 0.125,-0.800781 0.972656,-0.800781 0.84375,0 4.175782,0 4.175782,0 5.722656,0 10.402343,-3.105469 11.683593,-9.101562 1.441407,-6.761719 -3.378906,-9.847657 -7.554687,-9.875 z"
       id="path4"
       inkscape:connector-curvature="0" />
    <path
       style="fill:#283593"
       d="m 19.660156,13 c -0.472656,0 -0.851562,0.324219 -0.957031,0.769531 l -0.0039,-0.0039 L 16.125,25.53125 c 0.113281,-0.234375 0.359375,-0.539062 0.878906,-0.539062 0.84375,0 4.234375,0 4.234375,0 5.726563,0 10.433594,-3.121094 11.714844,-9.113282 0.226563,-1.054687 0.28125,-2.007812 0.230469,-2.882812 C 33.164063,12.992188 33.148438,13 33.132813,13 Z"
       id="path6"
       inkscape:connector-curvature="0" />
  </g>
</svg>
