<?xml version="1.0" encoding="utf-8"?>
<svg width="223px" height="258px" viewBox="0 0 223 258" version="1.1" xmlns:xlink="http://www.w3.org/1999/xlink" xmlns="http://www.w3.org/2000/svg">
  <desc>Created with Lunacy</desc>
  <defs>
    <path d="M75.083 4.82795C76.9822 3.87017 78.1924 1.59335 79.7569 0C80.5247 0.837213 81.4764 2.137 81.8627 3.38985C82.9758 6.12471 84.434 11.0121 82.3249 12.2753C80.5358 10.2474 77.0233 9.37008 73.9701 9.99116C71.8079 10.2734 72.3534 10.8935 73.1529 11.8027C73.8018 12.5405 74.6181 13.4687 74.2903 14.5609C74.4641 17.8122 71.7211 19.3691 68.9197 19.7227C62.825 21.0379 56.5169 22.7126 50.0701 24.0884C48.8719 26.3129 49.5922 29.6731 47.5021 31.5871C43.9041 35.5786 38.233 35.8846 33.5318 37.8532C33.1614 39.1394 33.8044 40.3899 34.4499 41.6452C34.7929 42.3124 35.1367 42.9809 35.3295 43.657C36.6714 46.8228 36.7615 50.3197 36.8499 53.7507C36.8892 55.2729 36.928 56.782 37.0758 58.2435C36.8193 61.5949 37.5895 64.794 38.3602 67.9955C38.6526 69.2101 38.945 70.425 39.1816 71.6488C39.3124 73.6759 39.7546 75.7352 40.1986 77.8035C40.8102 80.6517 41.4254 83.5169 41.236 86.3381C40.911 87.727 37.6658 88.2054 37.0758 90.1901C36.8191 93.4237 34.7353 96.2565 34.5077 99.3324C33.6402 102.368 31.9541 105.869 31.6315 109.605C31.7518 114.074 28.9847 118.009 25.9817 120.699C25.6875 123.729 25.1878 127.215 23.7732 130.149C23.8008 132.046 23.6551 133.97 23.5088 135.902C23.1974 140.015 22.8836 144.159 24.2355 148.125C25.767 153.309 31.3253 155.295 36.0999 156.292C38.4272 155.615 43.3869 157.466 41.0819 160.452C38.3588 162.775 35.3385 165.06 31.6828 165.794C29.0605 166.622 25.6332 165.362 22.9514 163.534C21.6627 162.4 20.3274 162.423 18.9723 162.446C17.9435 162.463 16.9033 162.481 15.8636 161.993C11.9676 161.412 12.3201 156.2 14.4586 153.974C14.9301 150.731 13.9458 147.764 12.9842 144.865C12.3646 142.997 11.7544 141.158 11.5491 139.291C10.6155 134.156 10.3154 128.814 10.83 123.575C10.4279 122.392 11.1331 121.505 11.8319 120.626C12.5831 119.681 13.3267 118.746 12.679 117.463C14.1318 113.463 13.907 109.053 12.8331 105.085C12.6388 103.227 12.1948 101.668 11.7657 100.162C11.0691 97.7166 10.4119 95.4094 10.9259 92.1866C11.8754 88.9378 10.2967 87.9563 8.32764 86.732C7.97188 86.5108 7.60338 86.2817 7.23474 86.0299C6.77042 84.2946 7.30956 82.4014 7.8637 80.4554C8.42652 78.479 9.00479 76.4482 8.56291 74.4736C7.09924 73.4634 6.27769 71.4149 5.61968 70.2137C3.32183 64.2805 2.83633 57.8777 2.70975 51.5319C2.12321 48.9081 2.75139 46.3231 3.37431 43.7597C3.82587 41.9015 4.27466 40.0547 4.256 38.2127C5.85104 35.2757 6.7294 31.7824 8.82714 29.1731C9.08884 28.4749 9.64477 27.8489 10.1951 27.2292C11.0871 26.2247 11.9642 25.2369 11.5493 23.9857C13.985 23.0659 11.9196 20.8502 10.2652 20.0308C9.1959 18.2689 7.61394 19.1645 6.08392 20.0308C5.50862 20.3565 4.94068 20.6781 4.41008 20.8526C2.39662 22.3339 -1.92598 21.4729 0.968886 18.9523C1.57786 18.2688 2.44122 17.7538 3.29146 17.2466C5.109 16.1624 6.86658 15.114 5.95092 12.5321C4.29097 8.14816 7.72547 4.75783 10.5708 1.9491C10.7455 1.77661 10.9181 1.60632 11.087 1.43812C16.1144 -0.547548 22.5584 1.66591 25.2113 6.42014C26.4155 6.3431 27.6667 5.91189 28.9332 5.4754C30.7919 4.83481 32.6834 4.18288 34.5077 4.6225C34.9155 7.50843 32.1732 8.39497 29.6812 9.20059C28.7929 9.48776 27.9364 9.76465 27.2658 10.1181C26.6272 11.6645 27.8773 12.5584 29.0913 13.4265C29.5497 13.7542 30.003 14.0783 30.3474 14.4325C31.6227 15.0938 30.9827 15.6898 30.4346 16.2001C30.0434 16.5644 29.6991 16.885 30.1316 17.1546C33.4175 17.2033 36.9495 16.4819 39.7979 15.1515C40.9282 12.9996 43.0257 12.9767 45.0654 12.9545C45.7602 12.9469 46.4483 12.9394 47.0892 12.8479C49.3861 13.4638 51.7669 12.7559 53.9688 12.1012C54.6401 11.9016 55.2947 11.707 55.9253 11.5563C59.8431 10.3296 64.9405 9.58421 68.8683 7.85825C70.7554 7.67158 73.1617 5.94955 75.083 4.82795ZM69.4846 12.8403C72.0912 12.7901 72.0387 16.5644 70.3064 17.0005C63.8345 18.9178 57.0086 20.2327 50.481 21.9826C47.3199 19.2915 50.3959 15.8753 54.0421 16.3934C58.3346 15.278 64.4997 13.8566 69.4846 12.8403ZM34.1995 19.7227C36.4158 22.6909 41.8663 20.3719 38.5138 17.6682C38.2666 17.8767 37.5003 18.0191 36.6641 18.1745C35.0869 18.4676 33.2611 18.8069 34.1995 19.7227ZM31.5741 19.7227C31.9579 19.9635 32.3591 20.2677 32.7819 20.5883C34.1731 21.6432 35.7968 22.8744 37.7948 22.5989C41.8779 22.7822 35.8611 24.8289 33.6647 25.4494C33.7233 25.3931 33.7818 25.3332 33.84 25.2697C33.745 25.3431 33.6584 25.4109 33.5798 25.4732C33.0044 25.6333 32.7315 25.6824 33.0505 25.552C31.9854 25.8228 30.8643 25.6996 29.684 25.5699C28.1877 25.4055 26.5964 25.2306 24.9031 25.8347C24.0344 24.231 25.459 24.1977 27.156 24.1579C28.5802 24.1246 30.1963 24.0868 30.8097 23.1125C31.4849 22.6224 31.2016 21.902 30.9446 21.2487C30.656 20.515 30.4007 19.8659 31.5741 19.7227ZM33.5798 25.4732C33.3285 25.6726 33.1582 25.8172 33.0505 25.9183C33.2573 25.7975 33.4621 25.6443 33.6647 25.4494C33.6357 25.4576 33.6074 25.4655 33.5798 25.4732L33.5798 25.4732Z" transform="translate(35.60095 42)" id="path_1" />
  </defs>
  <g id="Logo-Color" transform="translate(1 1)">
    <path d="M0 117C0 52.3827 44.2312 0 98.7932 0C153.355 0 197.586 52.3827 197.586 117C197.586 181.617 153.355 234 98.7932 234C44.2312 234 0 181.617 0 117Z" transform="translate(11.48756 11.48759)" id="Background" fill="#FFFFFF" stroke="none" />
    <path d="M110.281 0C49.3744 0 0 57.3075 0 128C0 198.692 49.3744 256 110.281 256C171.187 256 220.562 198.692 220.562 128C220.562 57.3075 171.187 0 110.281 0ZM110.281 11.4876C55.7188 11.4876 11.4876 63.8703 11.4876 128.488C11.4876 193.105 55.7188 245.488 110.281 245.488C164.843 245.488 209.074 193.105 209.074 128.488C209.074 63.8703 164.843 11.4876 110.281 11.4876Z" id="Oval" fill="#003F87" fill-rule="evenodd" stroke="none" />
    <g id="ATLANTA-GEORGIA" transform="translate(73 211.281)">
      <g id="ATLANTA" fill="#003F87">
        <path d="M12.488 12.834L11.704 9.922L8.104 9.922L7.32 12.834L5.4 12.834L8.664 1.666L11.192 1.666L14.456 12.834L12.488 12.834ZM19.96 3.426L19.96 12.834L17.96 12.834L17.96 3.426L15.16 3.426L15.16 1.666L22.776 1.666L22.776 3.426L19.96 3.426ZM24.328 1.666L24.328 12.834L30.248 12.834L30.248 11.074L26.328 11.074L26.328 1.666L24.328 1.666ZM38.136 12.834L37.352 9.922L33.752 9.922L32.968 12.834L31.048 12.834L34.312 1.666L36.84 1.666L40.104 12.834L38.136 12.834ZM43.576 4.546L44.36 6.482L47.448 12.834L49.672 12.834L49.672 1.666L47.784 1.666L47.784 7.954L47.912 9.954L47.688 9.954L46.904 8.018L43.816 1.666L41.592 1.666L41.592 12.834L43.48 12.834L43.48 6.546L43.352 4.546L43.576 4.546ZM56.024 3.426L56.024 12.834L54.024 12.834L54.024 3.426L51.224 3.426L51.224 1.666L58.84 1.666L58.84 3.426L56.024 3.426ZM65.848 9.922L66.632 12.834L68.6 12.834L65.336 1.666L62.808 1.666L59.544 12.834L61.464 12.834L62.248 9.922L65.848 9.922ZM10.36 5.25L10.008 3.474L9.784 3.474L9.432 5.25L8.584 8.306L11.224 8.306L10.36 5.25ZM36.008 5.25L35.656 3.474L35.432 3.474L35.08 5.25L34.232 8.306L36.872 8.306L36.008 5.25ZM64.152 3.474L64.504 5.25L65.368 8.306L62.728 8.306L63.576 5.25L63.928 3.474L64.152 3.474Z" />
      </g>
      <g id="GEORGIA" fill="#003F87">
        <path d="M11.864 25.638Q11.736 26.454 11.08 26.99Q10.424 27.526 9.272 27.526Q7.336 27.526 6.296 26.038Q5.256 24.55 5.256 21.782Q5.256 20.246 5.568 19.15Q5.88 18.054 6.456 17.342Q7.032 16.63 7.84 16.302Q8.648 15.974 9.64 15.974Q11.144 15.974 12.104 16.622Q13.064 17.27 13.608 18.486L11.976 19.43Q11.704 18.63 11.152 18.166Q10.6 17.702 9.64 17.702Q8.584 17.702 7.984 18.39Q7.384 19.078 7.384 20.358L7.384 23.142Q7.384 24.422 7.984 25.11Q8.584 25.798 9.64 25.798Q10.6 25.798 11.24 25.286Q11.88 24.774 11.88 23.814L11.88 22.998L9.928 22.998L9.928 21.302L13.784 21.302L13.784 27.334L12.088 27.334L12.088 25.638L11.864 25.638ZM26.784 27.198Q27.592 27.526 28.6 27.526Q29.608 27.526 30.416 27.198Q31.224 26.87 31.792 26.174Q32.36 25.478 32.672 24.382Q32.984 23.286 32.984 21.75Q32.984 20.214 32.672 19.118Q32.36 18.022 31.792 17.326Q31.224 16.63 30.416 16.302Q29.608 15.974 28.6 15.974Q27.592 15.974 26.784 16.302Q25.976 16.63 25.408 17.326Q24.84 18.022 24.528 19.118Q24.216 20.214 24.216 21.75Q24.216 23.286 24.528 24.382Q24.84 25.478 25.408 26.174Q25.976 26.87 26.784 27.198ZM49.928 26.99Q50.584 26.454 50.712 25.638L50.936 25.638L50.936 27.334L52.632 27.334L52.632 21.302L48.776 21.302L48.776 22.998L50.728 22.998L50.728 23.814Q50.728 24.774 50.088 25.286Q49.448 25.798 48.488 25.798Q47.432 25.798 46.832 25.11Q46.232 24.422 46.232 23.142L46.232 20.358Q46.232 19.078 46.832 18.39Q47.432 17.702 48.488 17.702Q49.448 17.702 50 18.166Q50.552 18.63 50.824 19.43L52.456 18.486Q51.912 17.27 50.952 16.622Q49.992 15.974 48.488 15.974Q47.496 15.974 46.688 16.302Q45.88 16.63 45.304 17.342Q44.728 18.054 44.416 19.15Q44.104 20.246 44.104 21.782Q44.104 24.55 45.144 26.038Q46.184 27.526 48.12 27.526Q49.272 27.526 49.928 26.99ZM15.928 27.334L15.928 16.166L22.632 16.166L22.632 17.926L17.928 17.926L17.928 20.838L22.04 20.838L22.04 22.534L17.928 22.534L17.928 25.574L22.632 25.574L22.632 27.334L15.928 27.334ZM36.904 27.334L34.904 27.334L34.904 16.166L39.528 16.166Q41 16.166 41.76 17.062Q42.52 17.958 42.52 19.558Q42.52 20.822 42.04 21.646Q41.56 22.47 40.632 22.774L42.664 27.334L40.504 27.334L38.664 22.934L36.904 22.934L36.904 27.334ZM54.376 27.334L54.376 25.75L55.704 25.75L55.704 17.75L54.376 17.75L54.376 16.166L59.032 16.166L59.032 17.75L57.704 17.75L57.704 25.75L59.032 25.75L59.032 27.334L54.376 27.334ZM66.424 24.422L67.208 27.334L69.176 27.334L65.912 16.166L63.384 16.166L60.12 27.334L62.04 27.334L62.824 24.422L66.424 24.422ZM30.28 25.086Q29.688 25.766 28.6 25.766Q27.512 25.766 26.92 25.086Q26.328 24.406 26.328 23.142L26.328 20.358Q26.328 19.094 26.92 18.414Q27.512 17.734 28.6 17.734Q29.688 17.734 30.28 18.414Q30.872 19.094 30.872 20.358L30.872 23.142Q30.872 24.406 30.28 25.086ZM39.32 21.27Q39.832 21.27 40.128 20.9992Q40.424 20.7285 40.424 20.0917L40.424 19.1042Q40.424 18.4675 40.128 18.1967Q39.832 17.926 39.32 17.926L36.904 17.926L36.904 21.27L39.32 21.27ZM64.728 17.974L65.08 19.75L65.944 22.806L63.304 22.806L64.152 19.75L64.504 17.974L64.728 17.974Z" />
      </g>
    </g>
    <g id="BSA-TROOP-370" transform="translate(111.4037 51.5)">
      <g id="BSA" fill="#003F87">
        <path d="M37.741 17.064Q35.869 17.064 34.441 16.38Q33.013 15.696 31.981 14.352L33.949 12.456Q34.669 13.44 35.629 13.956Q36.589 14.472 37.789 14.472Q40.477 14.472 40.477 12.024Q40.477 11.016 39.997 10.488Q39.517 9.96 38.413 9.72L36.949 9.432Q34.669 8.952 33.589 7.8Q32.509 6.648 32.509 4.584Q32.509 2.184 33.937 0.96Q35.365 -0.264 38.005 -0.264Q39.805 -0.264 41.089 0.324001Q42.373 0.912001 43.285 2.16L41.317 4.008Q40.693 3.168 39.901 2.748Q39.109 2.328 37.957 2.328Q36.685 2.328 36.085 2.832Q35.485 3.336 35.485 4.464Q35.485 5.4 35.953 5.904Q36.421 6.408 37.477 6.648L38.941 6.96Q40.165 7.224 41.017 7.608Q41.869 7.992 42.409 8.568Q42.949 9.144 43.201 9.924Q43.453 10.704 43.453 11.76Q43.453 14.352 41.977 15.708Q40.501 17.064 37.741 17.064ZM18.637 0.0240002L25.765 0.0240002Q27.733 0.0240021 28.729 1.15537Q29.725 2.28675 29.725 4.33313Q29.725 5.994 29.029 6.90881Q28.333 7.82363 26.965 7.92L26.965 8.27888Q27.709 8.27888 28.321 8.55413Q28.933 8.82938 29.377 9.32006Q29.821 9.81075 30.061 10.4929Q30.301 11.175 30.301 11.9891Q30.301 13.0181 30.025 13.8919Q29.749 14.7656 29.245 15.4118Q28.741 16.0579 28.033 16.4169C27.561 16.6563 27.029 16.776 26.437 16.776L18.637 16.776L18.637 0.0240002ZM54.325 12.408L55.501 16.776L58.453 16.776L53.557 0.0240002L49.765 0.0240002L44.869 16.776L47.749 16.776L48.925 12.408L54.325 12.408ZM21.637 7.008L25.093 7.008Q25.813 7.008 26.221 6.648Q26.629 6.288 26.629 5.4L26.629 4.272Q26.629 3.384 26.221 3.024Q25.813 2.664 25.093 2.664L21.637 2.664L21.637 7.008ZM51.781 2.736L52.309 5.4L53.605 9.984L49.645 9.984L50.917 5.4L51.445 2.736L51.781 2.736ZM21.637 14.136L25.573 14.136Q26.317 14.136 26.737 13.7441Q27.157 13.3523 27.157 12.426L27.157 11.262Q27.157 10.3358 26.737 9.94388Q26.317 9.552 25.573 9.552L21.637 9.552L21.637 14.136Z" />
      </g>
      <g id="TROOP" fill="#003F87">
        <path d="M33.985 38.872Q35.197 39.364 36.709 39.364Q38.221 39.364 39.433 38.872Q40.645 38.38 41.497 37.336Q42.349 36.292 42.817 34.648Q43.285 33.004 43.285 30.7Q43.285 28.396 42.817 26.752Q42.349 25.108 41.497 24.064Q40.645 23.02 39.433 22.528Q38.221 22.036 36.709 22.036Q35.197 22.036 33.985 22.528Q32.773 23.02 31.921 24.064Q31.069 25.108 30.601 26.752Q30.133 28.396 30.133 30.7Q30.133 33.004 30.601 34.648Q31.069 36.292 31.921 37.336Q32.773 38.38 33.985 38.872ZM52.117 39.364Q50.605 39.364 49.393 38.872Q48.181 38.38 47.329 37.336Q46.477 36.292 46.009 34.648Q45.541 33.004 45.541 30.7Q45.541 28.396 46.009 26.752Q46.477 25.108 47.329 24.064Q48.181 23.02 49.393 22.528Q50.605 22.036 52.117 22.036Q53.629 22.036 54.841 22.528Q56.053 23.02 56.905 24.064Q57.757 25.108 58.225 26.752Q58.693 28.396 58.693 30.7Q58.693 33.004 58.225 34.648Q57.757 36.292 56.905 37.336Q56.053 38.38 54.841 38.872Q53.629 39.364 52.117 39.364ZM9.78101 24.964L9.78101 39.076L6.78101 39.076L6.78101 24.964L2.58101 24.964L2.58101 22.324L14.005 22.324L14.005 24.964L9.78101 24.964ZM19.333 39.076L16.333 39.076L16.333 22.324L23.269 22.324Q25.477 22.324 26.617 23.668Q27.757 25.012 27.757 27.412Q27.757 29.308 27.037 30.544Q26.317 31.78 24.925 32.236L27.973 39.076L24.733 39.076L21.973 32.476L19.333 32.476L19.333 39.076ZM68.509 22.324L61.573 22.324L61.573 39.076L64.573 39.076L64.573 32.596L68.509 32.596Q70.717 32.596 71.857 31.228Q72.997 29.86 72.997 27.46Q72.997 25.06 71.857 23.692Q70.717 22.324 68.509 22.324ZM39.229 35.704Q38.341 36.724 36.709 36.724Q35.077 36.724 34.189 35.704Q33.301 34.684 33.301 32.788L33.301 28.612Q33.301 26.716 34.189 25.696Q35.077 24.676 36.709 24.676Q38.341 24.676 39.229 25.696Q40.117 26.716 40.117 28.612L40.117 32.788Q40.117 34.684 39.229 35.704ZM52.117 36.724Q53.749 36.724 54.637 35.704Q55.525 34.684 55.525 32.788L55.525 28.612Q55.525 26.716 54.637 25.696Q53.749 24.676 52.117 24.676Q50.485 24.676 49.597 25.696Q48.709 26.716 48.709 28.612L48.709 32.788Q48.709 34.684 49.597 35.704Q50.485 36.724 52.117 36.724ZM22.957 29.98Q23.725 29.98 24.169 29.5739Q24.613 29.1677 24.613 28.2126L24.613 26.7314Q24.613 25.7762 24.169 25.3701Q23.725 24.964 22.957 24.964L19.333 24.964L19.333 29.98L22.957 29.98ZM68.197 29.956L64.573 29.956L64.573 24.964L68.197 24.964Q68.965 24.964 69.409 25.3801Q69.853 25.7961 69.853 26.7231L69.853 28.1969Q69.853 29.1239 69.409 29.5399Q68.965 29.956 68.197 29.956Z" />
      </g>
      <g id="370" fill="#003F87">
        <path d="M24.157 51.464Q25.285 51.464 25.945 50.9Q26.605 50.336 26.605 49.4L26.605 48.752Q26.605 47.84 26.041 47.324Q25.477 46.808 24.469 46.808Q23.437 46.808 22.693 47.312Q21.949 47.816 21.397 48.8L19.477 47.12Q20.293 45.824 21.589 45.08Q22.885 44.336 24.637 44.336Q26.965 44.336 28.321 45.392Q29.677 46.448 29.677 48.68Q29.677 50.192 28.921 51.188Q28.165 52.184 26.821 52.448L26.821 52.808Q28.381 53.024 29.185 53.984Q29.989 54.944 29.989 56.552Q29.989 58.928 28.501 60.296Q27.013 61.664 24.397 61.664Q20.725 61.664 18.949 58.568L21.133 56.912Q21.733 58.088 22.513 58.64Q23.293 59.192 24.373 59.192Q25.573 59.192 26.233 58.568Q26.893 57.944 26.893 56.864L26.893 56.192Q26.893 55.136 26.173 54.524Q25.453 53.912 24.133 53.912L22.693 53.912L22.693 51.464L24.157 51.464ZM48.325 61.172Q49.381 61.664 50.845 61.664Q52.309 61.664 53.365 61.172Q54.421 60.68 55.105 59.636Q55.789 58.592 56.125 56.948Q56.461 55.304 56.461 53Q56.461 50.696 56.125 49.052Q55.789 47.408 55.105 46.364Q54.421 45.32 53.365 44.828Q52.309 44.336 50.845 44.336Q49.381 44.336 48.325 44.828Q47.269 45.32 46.585 46.364Q45.901 47.408 45.565 49.052Q45.229 50.696 45.229 53Q45.229 55.304 45.565 56.948Q45.901 58.592 46.585 59.636Q47.269 60.68 48.325 61.172ZM35.029 61.376L40.261 47.12L35.197 47.12L35.197 50.096L32.677 50.096L32.677 44.624L43.189 44.624L43.189 47.192L38.173 61.376L35.029 61.376ZM52.753 58.22Q52.213 59.096 50.845 59.096Q49.477 59.096 48.937 58.22Q48.397 57.344 48.397 55.352L48.397 50.648Q48.397 48.656 48.937 47.78Q49.477 46.904 50.845 46.904Q52.213 46.904 52.753 47.78Q53.293 48.656 53.293 50.648L53.293 55.352Q53.293 57.344 52.753 58.22Z" />
      </g>
    </g>
    <path d="M13 0.5L13 10.5M16 0.5L16 10.5M19 0.5L19 10.5M7 0.5L7 10.5M10 0.5L10 10.5M5 0L21 0M4 11.5L22 11.5M6 12.5L22 42.5M20 10.5L4 41.5M26 67.5L20 11.5M0 67.5L6 11.5M23 42L3 42M3 42.5L26 65.5M22 42.5L0 64.5" transform="translate(173 110.5)" id="Tower" fill="none" stroke="#003F87" stroke-width="2" />
    <path d="M14.999 0L15.201 0C15.4768 0 15.7123 0.0975342 15.9073 0.292587C16.1024 0.487656 16.2 0.723129 16.2 0.998993L16.2 58.001C16.2 58.2769 16.1024 58.5123 15.9073 58.7074C15.7123 58.9024 15.4768 59 15.201 59L14.999 59C14.7231 59 14.4876 58.9024 14.2925 58.7074C14.0975 58.5123 13.9999 58.2769 14 58.001L14 16.8928C13.5364 17.1203 12.9563 17.4788 12.5 18.0003C11.5938 19.036 11.4937 19.735 10.5 21.0002C10.0438 21.5811 7.82907 22.8036 5.99997 24.0001C3.84503 25.4098 2.06177 26.7774 1.9339 26.9285C1.81195 27.0727 1.56729 27.2202 1.35898 27.3293C1.35898 27.3293 1.1983 27.4565 1.09998 27.4C1.00165 27.3436 0.965668 27.1034 0.965668 27.1034L0.009552 16.051C0.009552 16.051 -0.0320435 15.7153 0.0583801 15.6004C0.0379639 15.4855 0.592255 15.3255 0.592255 15.3255C1.88254 14.7646 4.8989 13.3243 6.759 11.3933C9.17538 8.88481 7.96649 8.25478 9.64047 5.54822C10.8155 3.64847 12.5468 1.76836 14 0.500748C14.1141 0.401215 14.2253 0.321381 14.3297 0.257355C14.4215 0.174545 14.5251 0.110947 14.6404 0.0665588C14.7558 0.0221863 14.8753 0 14.999 0L14.999 0Z" transform="translate(120 119)" id="Flag" fill="#003F87" stroke="none" />
    <path d="M14.4782 0.00100937C14.4861 0.000123821 14.4938 -0.000144527 14.5013 7.01512e-05C14.5079 -3.71879e-05 14.5148 0.000284829 14.5218 0.00106304L14.5219 0.00192175C14.5799 0.0107236 14.618 0.0468163 14.618 0.0468163L15.2879 0.73392L15.8827 1.23393L16.3519 1.90421L17.0117 2.48441L17.58 2.99612L18.2251 3.49342L18.8241 3.78533L19.523 4.25094L20.0995 4.69055L20.9975 4.95291L21.5044 5.17274L22.2339 5.50788L22.7869 5.96555L23.3053 6.58535L23.7661 6.96015L24.1692 7.28447L24.5609 7.8322L24.799 8.18537L25.1177 8.74034L25.4556 9.18719L25.6937 9.48992L26.0047 9.83227L26.3235 10.0737L26.4847 10.4124L26.5999 10.8341L26.7919 11.285L26.9532 11.5656L27.1912 11.9836L27.4715 12.4773L27.7787 13.126L27.9055 13.6017L28.1973 13.962L28.4123 14.3692L28.579 14.8867L28.8152 15.5408L28.9189 16.1138L29 16.9999L14.5219 17L0 17L0.0811144 16.1138L0.184816 15.5409L0.420955 14.8868L0.587672 14.3693L0.80271 13.9621L1.09454 13.6017L1.22126 13.126L1.52845 12.4774L1.80876 11.9837L2.04682 11.5656L2.20813 11.285L2.4001 10.8341L2.51529 10.4125L2.67655 10.0737L2.99529 9.83233L3.30631 9.48997L3.54439 9.18725L3.88231 8.74039L4.20103 8.18542L4.43911 7.83225L4.83076 7.28453L5.23393 6.9602L5.69471 6.5854L6.21313 5.9656L6.76607 5.50793L7.49564 5.17279L8.00251 4.95296L8.90052 4.6906L9.47701 4.25099L10.1759 3.78538L10.7749 3.49347L11.42 2.99617L11.9883 2.48446L12.6481 1.90426L13.1173 1.23399L13.7121 0.733974L14.382 0.04687C14.382 0.04687 14.4201 0.0107772 14.4781 0.00197542L14.4782 0.00100937ZM21.1269 15.8278L14.475 7.91394L8.66626 15.8278L21.1269 15.8278ZM2.39072 15.7399L6.22499 15.7399Q6.24468 15.7399 6.26288 15.7324Q6.28107 15.7248 6.29499 15.7109Q6.30892 15.697 6.31645 15.6788Q6.32399 15.6606 6.32399 15.6409L6.32399 9.57485Q6.32399 9.5418 6.30413 9.51538Q6.28428 9.48895 6.25253 9.47976Q6.22078 9.47057 6.18987 9.48229Q6.15897 9.49402 6.14131 9.52196L2.30704 15.588Q2.29258 15.6109 2.29177 15.6379Q2.29096 15.665 2.30401 15.6887Q2.31707 15.7124 2.34037 15.7262Q2.36366 15.7399 2.39072 15.7399ZM23.5681 15.7399L27.4023 15.7399Q27.4294 15.7399 27.4527 15.7262Q27.476 15.7124 27.489 15.6887Q27.5021 15.665 27.5013 15.6379Q27.5005 15.6109 27.486 15.588L23.6518 9.52196Q23.6341 9.49402 23.6032 9.48229Q23.5723 9.47057 23.5405 9.47976Q23.5088 9.48895 23.4889 9.51538Q23.4691 9.5418 23.4691 9.57485L23.4691 15.6409Q23.4691 15.6606 23.4766 15.6788Q23.4841 15.697 23.4981 15.7109Q23.512 15.7248 23.5302 15.7324Q23.5484 15.7399 23.5681 15.7399Z" transform="translate(139.5 160)" id="Tent" fill="#003F87" fill-rule="evenodd" stroke="none" />
    <path d="M15.4767 0.00100937C15.4852 0.000123821 15.4934 -0.000144527 15.5014 7.01512e-05C15.5085 -3.71879e-05 15.5158 0.000284829 15.5233 0.00106304L15.5234 0.00192175C15.5854 0.0107236 15.6261 0.0468163 15.6261 0.0468163L16.3422 0.73392L16.9781 1.23393L17.4796 1.90421L18.1849 2.48441L18.7924 2.99612L19.482 3.49342L20.1223 3.78533L20.8694 4.25094L21.4857 4.69055L22.4456 4.95291L22.9874 5.17274L23.7673 5.50788L24.3584 5.96555L24.9126 6.58535L25.4051 6.96015L25.8361 7.28447L26.2547 7.8322L26.5093 8.18537L26.8499 8.74034L27.2112 9.18719L27.4657 9.48992L27.7981 9.83227L28.1389 10.0737L28.3112 10.4124L28.4344 10.8341L28.6396 11.285L28.812 11.5656L29.0665 11.9836L29.3661 12.4773L29.6945 13.126L29.83 13.6017L30.1419 13.962L30.3718 14.3692L30.55 14.8867L30.8024 15.5408L30.9133 16.1138L31 16.9999L15.5234 17L0 17L0.0867085 16.1138L0.197562 15.5409L0.449986 14.8868L0.628201 14.3693L0.858069 13.9621L1.17003 13.6017L1.30549 13.126L1.63386 12.4774L1.93351 11.9837L2.18798 11.5656L2.36042 11.285L2.56562 10.8341L2.68876 10.4125L2.86114 10.0737L3.20186 9.83233L3.53433 9.48997L3.78883 9.18725L4.15006 8.74039L4.49075 8.18542L4.74525 7.83225L5.16391 7.28453L5.59489 6.9602L6.08745 6.5854L6.64162 5.9656L7.23269 5.50793L8.01258 5.17279L8.55441 4.95296L9.51435 4.6906L10.1306 4.25099L10.8777 3.78538L11.518 3.49347L12.2076 2.99617L12.8151 2.48446L13.5204 1.90426L14.0219 1.23399L14.6578 0.733974L15.3739 0.04687C15.3739 0.04687 15.4146 0.0107772 15.4766 0.00197542L15.4767 0.00100937ZM22.5839 15.8278L15.4732 7.91394L9.26392 15.8278L22.5839 15.8278ZM25.1866 15.7399L29.2979 15.7399Q29.3253 15.7399 29.3489 15.7258Q29.3724 15.7116 29.3853 15.6874Q29.3982 15.6631 29.3967 15.6357Q29.3953 15.6082 29.3799 15.5855L25.2687 9.50086Q25.2504 9.47382 25.2196 9.46295Q25.1889 9.45207 25.1577 9.46163Q25.1264 9.47118 25.107 9.49742Q25.0876 9.52366 25.0876 9.55629L25.0876 15.6409Q25.0876 15.6606 25.0952 15.6788Q25.1027 15.697 25.1166 15.7109Q25.1306 15.7248 25.1487 15.7324Q25.1669 15.7399 25.1866 15.7399ZM2.5499 15.7399L6.66114 15.7399Q6.68083 15.7399 6.69903 15.7324Q6.71722 15.7248 6.73114 15.7109Q6.74507 15.697 6.7526 15.6788Q6.76014 15.6606 6.76014 15.6409L6.76014 9.55629Q6.76014 9.52366 6.74074 9.49742Q6.72133 9.47118 6.69012 9.46163Q6.65892 9.45207 6.62815 9.46295Q6.59738 9.47382 6.57911 9.50086L2.46787 15.5855Q2.45249 15.6082 2.45104 15.6357Q2.44958 15.6631 2.46247 15.6874Q2.47535 15.7116 2.49889 15.7258Q2.52243 15.7399 2.5499 15.7399Z" transform="translate(98 160)" id="Tent-2" fill="#003F87" fill-rule="evenodd" stroke="none" />
    <path d="M14.9774 0.00100937C14.9857 0.000123821 14.9936 -0.000144527 15.0013 7.01512e-05C15.0082 -3.71879e-05 15.0153 0.000284829 15.0226 0.00106304L15.0226 0.00192175C15.0827 0.0107236 15.122 0.0468163 15.122 0.0468163L15.8151 0.73392L16.4304 1.23393L16.9158 1.90421L17.5983 2.48441L18.1862 2.99612L18.8536 3.49342L19.4732 3.78533L20.1962 4.25094L20.7926 4.69055L21.7215 4.95291L22.2459 5.17274L23.0006 5.50788L23.5726 5.96555L24.1089 6.58535L24.5856 6.96015L25.0027 7.28447L25.4078 7.8322L25.6541 8.18537L25.9838 8.74034L26.3334 9.18719L26.5797 9.48992L26.9014 9.83227L27.2312 10.0737L27.398 10.4124L27.5171 10.8341L27.7158 11.285L27.8826 11.5656L28.1289 11.9836L28.4188 12.4773L28.7366 13.126L28.8677 13.6017L29.1696 13.962L29.3921 14.3692L29.5645 14.8867L29.8088 15.5408L29.9161 16.1138L30 16.9999L15.0226 17L0 17L0.0839115 16.1138L0.191189 15.5409L0.43547 14.8868L0.607937 14.3693L0.83039 13.9621L1.13229 13.6017L1.26338 13.126L1.58116 12.4774L1.87113 11.9837L2.1174 11.5656L2.28427 11.285L2.48286 10.8341L2.60203 10.4125L2.76884 10.0737L3.09857 9.83233L3.42032 9.48997L3.66661 9.18725L4.01619 8.74039L4.34589 8.18542L4.59218 7.83225L4.99733 7.28453L5.41441 6.9602L5.89108 6.5854L6.42738 5.9656L6.99938 5.50793L7.75411 5.17279L8.27846 4.95296L9.20743 4.6906L9.8038 4.25099L10.5268 3.78538L11.1464 3.49347L11.8138 2.99617L12.4017 2.48446L13.0842 1.90426L13.5696 1.23399L14.1849 0.733974L14.878 0.04687C14.878 0.04687 14.9173 0.0107772 14.9774 0.00197542L14.9774 0.00100937ZM21.8554 15.8278L14.9741 7.91394L8.96509 15.8278L21.8554 15.8278ZM2.47031 15.7399L6.44308 15.7399Q6.46277 15.7399 6.48097 15.7324Q6.49916 15.7248 6.51308 15.7109Q6.52701 15.697 6.53454 15.6788Q6.54208 15.6606 6.54208 15.6409L6.54208 9.56524Q6.54208 9.5324 6.52245 9.50607Q6.50282 9.47974 6.47135 9.47036Q6.43987 9.46099 6.40903 9.47228Q6.3782 9.48357 6.36022 9.51106L2.38745 15.5867Q2.37253 15.6096 2.3714 15.6368Q2.37026 15.664 2.38324 15.688Q2.39621 15.712 2.41963 15.726Q2.44305 15.7399 2.47031 15.7399ZM24.3774 15.7399L28.3501 15.7399Q28.3774 15.7399 28.4008 15.726Q28.4242 15.712 28.4372 15.688Q28.4502 15.664 28.449 15.6368Q28.4479 15.6096 28.433 15.5867L24.4602 9.51106Q24.4422 9.48358 24.4114 9.47228Q24.3806 9.46099 24.3491 9.47036Q24.3176 9.47974 24.298 9.50607Q24.2784 9.5324 24.2784 9.56524L24.2784 15.6409Q24.2784 15.6606 24.2859 15.6788Q24.2934 15.697 24.3073 15.7109Q24.3213 15.7248 24.3395 15.7324Q24.3577 15.7399 24.3774 15.7399Z" transform="translate(63 160)" id="Tent-3" fill="#003F87" fill-rule="evenodd" stroke="none" />
    <path d="M15.4767 0.00100937C15.4852 0.000123821 15.4934 -0.000144527 15.5014 7.01512e-05C15.5085 -3.71879e-05 15.5158 0.000284829 15.5233 0.00106304L15.5234 0.00192175C15.5854 0.0107236 15.6261 0.0468163 15.6261 0.0468163L16.3422 0.73392L16.9781 1.23393L17.4796 1.90421L18.1849 2.48441L18.7924 2.99612L19.482 3.49342L20.1223 3.78533L20.8694 4.25094L21.4857 4.69055L22.4456 4.95291L22.9874 5.17274L23.7673 5.50788L24.3584 5.96555L24.9126 6.58535L25.4051 6.96015L25.8361 7.28447L26.2547 7.8322L26.5093 8.18537L26.8499 8.74034L27.2112 9.18719L27.4657 9.48992L27.7981 9.83227L28.1389 10.0737L28.3112 10.4124L28.4344 10.8341L28.6396 11.285L28.812 11.5656L29.0665 11.9836L29.3661 12.4773L29.6945 13.126L29.83 13.6017L30.1419 13.962L30.3718 14.3692L30.55 14.8867L30.8024 15.5408L30.9133 16.1138L31 16.9999L15.5234 17L0 17L0.0867085 16.1138L0.197562 15.5409L0.449986 14.8868L0.628201 14.3693L0.858069 13.9621L1.17003 13.6017L1.30549 13.126L1.63386 12.4774L1.93351 11.9837L2.18798 11.5656L2.36042 11.285L2.56562 10.8341L2.68876 10.4125L2.86114 10.0737L3.20186 9.83233L3.53433 9.48997L3.78883 9.18725L4.15006 8.74039L4.49075 8.18542L4.74525 7.83225L5.16391 7.28453L5.59489 6.9602L6.08745 6.5854L6.64162 5.9656L7.23269 5.50793L8.01258 5.17279L8.55441 4.95296L9.51435 4.6906L10.1306 4.25099L10.8777 3.78538L11.518 3.49347L12.2076 2.99617L12.8151 2.48446L13.5204 1.90426L14.0219 1.23399L14.6578 0.733974L15.3739 0.04687C15.3739 0.04687 15.4146 0.0107772 15.4766 0.00197542L15.4767 0.00100937ZM22.5839 15.8278L15.4732 7.91394L9.26392 15.8278L22.5839 15.8278ZM25.1866 15.7399L29.2979 15.7399Q29.3253 15.7399 29.3489 15.7258Q29.3724 15.7116 29.3853 15.6874Q29.3982 15.6631 29.3967 15.6357Q29.3953 15.6082 29.3799 15.5855L25.2687 9.50086Q25.2504 9.47382 25.2196 9.46295Q25.1889 9.45207 25.1577 9.46163Q25.1264 9.47118 25.107 9.49742Q25.0876 9.52366 25.0876 9.55629L25.0876 15.6409Q25.0876 15.6606 25.0952 15.6788Q25.1027 15.697 25.1166 15.7109Q25.1306 15.7248 25.1487 15.7324Q25.1669 15.7399 25.1866 15.7399ZM2.5499 15.7399L6.66114 15.7399Q6.68083 15.7399 6.69903 15.7324Q6.71722 15.7248 6.73114 15.7109Q6.74507 15.697 6.7526 15.6788Q6.76014 15.6606 6.76014 15.6409L6.76014 9.55629Q6.76014 9.52366 6.74074 9.49742Q6.72133 9.47118 6.69012 9.46163Q6.65892 9.45207 6.62815 9.46295Q6.59738 9.47382 6.57911 9.50086L2.46787 15.5855Q2.45249 15.6082 2.45104 15.6357Q2.44958 15.6631 2.46247 15.6874Q2.47535 15.7116 2.49889 15.7258Q2.52243 15.7399 2.5499 15.7399Z" transform="translate(25 160)" id="Tent-4" fill="#003F87" fill-rule="evenodd" stroke="none" />
    <path d="M15.6834 34L0 0L188.396 0.17234L173.028 34L15.6834 34ZM115.827 2.08461C115.965 1.7675 116.088 1.50525 116.101 1.50006C116.111 1.49528 116.249 1.77247 116.398 2.11551C116.836 3.11874 117.273 3.97261 118.573 6.35815C119.704 8.43327 120.31 9.88538 120.587 11.1866C120.647 11.4892 120.694 11.6119 120.729 11.6068C120.759 11.602 120.941 11.5344 121.137 11.4473C122.594 10.8214 124.279 10.7235 125.614 11.1878C126.314 11.4303 127.156 11.937 127.645 12.4088L127.888 12.6424L127.259 12.6449L126.63 12.6461L126.461 12.5262C126.229 12.3605 125.666 12.0893 125.307 11.9701C124.633 11.7462 124.058 11.6805 123.362 11.7489C122.223 11.8608 121.233 12.2126 120.392 12.8006C120.202 12.9343 120.041 13.0367 120.035 13.0305C120.03 13.0233 120.005 12.7985 119.975 12.5312C119.805 10.7173 119.269 9.32542 117.465 6.02944C117.132 5.41901 116.69 4.59076 116.485 4.18927C116.279 3.78819 116.106 3.46013 116.1 3.46013C116.094 3.46013 115.931 3.77062 115.735 4.15096C115.541 4.5313 115.054 5.44632 114.652 6.18515C113.42 8.45181 113.017 9.31114 112.654 10.4537C112.425 11.1761 112.289 11.8328 112.222 12.5411C112.192 12.8136 112.162 13.0364 112.152 13.0354C112.142 13.0341 111.997 12.932 111.832 12.8179L111.84 12.8154C110.642 11.9521 108.786 11.5272 107.466 11.8132C106.889 11.9385 106.13 12.2527 105.748 12.5263L105.58 12.6474L104.95 12.6449L104.321 12.6436L104.565 12.4088C104.892 12.0927 105.437 11.7185 105.912 11.4832C106.692 11.0966 107.302 10.9394 108.139 10.9073C109.154 10.8659 110.149 11.0516 111.073 11.4486C111.268 11.5316 111.451 11.6049 111.48 11.608C111.52 11.6128 111.56 11.4905 111.622 11.1878C111.672 10.9525 111.805 10.4731 111.918 10.1238C112.284 8.98396 112.721 8.04697 113.858 5.95403C115.014 3.82572 115.392 3.08412 115.827 2.08461ZM116.1 4.17927C116.097 4.1788 116.096 4.19409 116.095 4.22129C116.087 4.36803 115.721 9.87534 115.642 10.9925C115.592 11.5919 115.562 12.1183 115.562 12.1702L115.57 12.1751C115.57 12.2574 115.575 12.2579 116.127 12.2579L116.684 12.2579L116.664 12.0923C116.656 12.0014 116.532 10.2012 116.388 8.09194C116.175 4.9739 116.117 4.18257 116.1 4.17927ZM115.636 12.7795C115.765 12.7111 115.896 12.6728 116.099 12.6633C116.301 12.6539 116.573 12.6725 116.982 12.7165L117.532 12.7684L117.394 13.0316L117.258 13.2936L117.419 14.3169C117.653 15.7922 117.727 15.948 118.078 15.7332C118.31 15.5923 118.802 15.1594 119.364 14.6049C120.192 13.7872 120.774 13.4085 121.599 13.1528C121.8 13.0906 122.103 13.0805 125.157 13.07C127.724 13.0604 128.496 13.0688 128.496 13.1009C128.496 13.1839 128.31 13.4804 128.204 13.5581C128.043 13.6772 127.867 13.7094 126.495 13.872L125.223 14.0228L126.563 14.0277L127.902 14.0327L127.778 14.2119C127.503 14.6109 127.371 14.6565 125.915 14.8286L125.148 14.9212L126.131 14.9262L127.114 14.9311L127.053 15.0423C126.964 15.2248 126.81 15.3929 126.645 15.4934C126.446 15.6147 126.212 15.653 124.657 15.8147C124.409 15.8363 124.514 15.8458 125.275 15.8666L126.191 15.8877L126.005 16.0953C125.704 16.4321 125.59 16.4825 124.894 16.5871C124.558 16.639 124.064 16.7016 123.797 16.7305L123.311 16.7824L124.18 16.7923C124.658 16.7971 125.05 16.8132 125.05 16.8331C125.05 16.8952 124.655 17.2501 124.507 17.3175C124.417 17.3589 123.93 17.4514 123.365 17.5375L122.375 17.687L123.114 17.6895C123.524 17.6912 123.852 17.7117 123.852 17.7315C123.852 17.753 123.763 17.855 123.647 17.9626C123.322 18.2715 123.134 18.3441 122.31 18.4767C121.258 18.6456 121.252 18.6468 121.85 18.6695L122.374 18.6918L122.02 18.9365C121.615 19.2163 121.435 19.2826 120.654 19.437L120.092 19.5482L120.454 19.5692L120.816 19.5902L120.015 20.0883C119.446 20.4407 119.213 20.6068 119.213 20.6555C119.213 20.6969 119.605 21.1197 120.13 21.6504C120.634 22.1592 121.045 22.5969 121.045 22.6217C121.045 22.7047 120.58 23.2845 120.357 23.4856C120.131 23.6886 119.557 24.1245 119.517 24.1245C119.487 24.1245 118.563 21.9429 118.568 21.8864C118.57 21.8649 118.648 21.6255 118.741 21.355C118.92 20.8316 119.074 20.1052 119.137 19.4839C119.177 19.0735 119.187 17.7726 119.144 17.43L119.124 17.2174L117.609 16.8553L116.094 16.492L114.579 16.8553L113.065 17.2174L113.034 17.4102C112.994 17.7263 112.994 19.0921 113.041 19.5111C113.121 20.2874 113.333 21.195 113.548 21.701L113.638 21.9062L113.185 22.9863C112.936 23.5801 112.721 24.0803 112.706 24.0973C112.696 24.1188 112.556 24.0449 112.404 23.9342L112.417 23.9404C111.947 23.6129 111.542 23.2119 111.26 22.796L111.134 22.6106L112.059 21.6714C112.759 20.9615 112.982 20.7129 112.974 20.6518C112.965 20.5896 112.751 20.4387 112.179 20.0821L111.396 19.5939L111.749 19.5729L112.102 19.5519L111.841 19.5C110.818 19.302 110.499 19.1842 110.026 18.8277L109.822 18.6732L110.345 18.6708C110.659 18.6691 110.837 18.6494 110.792 18.6399C110.753 18.6183 110.376 18.5566 109.958 18.4903C109.322 18.3971 109.158 18.3538 108.965 18.2543C108.738 18.1371 108.342 17.8106 108.342 17.7402C108.342 17.7186 108.657 17.6994 109.081 17.6994L109.82 17.6969L108.831 17.5449C107.71 17.373 107.554 17.3186 107.292 17.0098L107.138 16.8269L108.012 16.8059L108.884 16.7836L108.269 16.712C107.299 16.6 106.764 16.509 106.602 16.4302C106.522 16.3888 106.352 16.2521 106.229 16.1225L106.007 15.8877L106.922 15.8654C107.425 15.8558 107.798 15.8441 107.753 15.8345C105.926 15.6458 105.708 15.6085 105.505 15.4489C105.326 15.3081 105.131 15.0559 105.127 14.9595C105.127 14.938 105.559 14.9286 106.089 14.9286L107.052 14.9237L106.621 14.8718C105.266 14.7061 104.968 14.6588 104.831 14.5863C104.692 14.5139 104.34 14.1452 104.34 14.0747C104.34 14.0532 104.933 14.0327 105.658 14.0327L106.977 14.0228L106.323 13.9511C105.082 13.8153 104.226 13.6931 104.124 13.6372C103.96 13.5439 103.704 13.2128 103.704 13.0885C103.704 13.0789 105.215 13.0666 107.062 13.0786L110.418 13.0885L110.696 13.1824C111.082 13.3058 111.466 13.496 111.83 13.7447C112.221 14.0121 112.327 14.1036 112.985 14.742C113.506 15.2467 114.029 15.6962 114.21 15.795C114.335 15.8674 114.457 15.8169 114.653 15.6306C114.824 15.4668 114.876 15.366 115.075 14.8322L115.181 14.5492L114.926 14.4145C114.698 14.2954 114.55 14.1628 114.55 14.0747C114.55 14.0228 115.205 14.0431 115.391 14.0957C115.588 14.1579 115.747 14.2896 115.747 14.3923C115.747 14.4545 115.415 15.6475 115.357 15.7962C115.327 15.8687 115.417 15.8896 115.852 15.9321C116.109 15.9537 117.084 15.891 117.122 15.8493C117.13 15.8398 117.063 15.3111 116.963 14.6716C116.77 13.3841 116.767 13.3723 116.48 13.2912C116.293 13.2393 115.684 13.269 115.564 13.3319C115.485 13.3733 115.485 13.3838 115.535 13.4407C115.565 13.4718 115.645 13.5037 115.709 13.5037C115.799 13.5061 115.824 13.5251 115.815 13.5865C115.809 13.6279 115.754 13.6978 115.697 13.7422C115.608 13.8147 115.524 13.8255 115.062 13.846C114.77 13.8556 114.503 13.8771 114.468 13.8979C114.379 13.9393 114.359 14.0212 114.398 14.1414C114.448 14.2648 114.428 14.2878 114.319 14.2526C114.217 14.2215 114.097 13.9515 114.096 13.7546C114.093 13.3856 114.29 13.2503 114.813 13.2627L115.149 13.2701L115.287 13.0811C115.376 12.9567 115.497 12.8532 115.636 12.7795ZM128.317 14.0126C128.453 13.8167 128.576 13.6577 128.591 13.6567C128.641 13.6543 128.845 14.1171 128.975 14.5255C129.367 15.7508 129.271 17.3077 128.725 18.5753C128.112 19.9977 126.949 21.2203 125.481 21.9862L125.022 22.2247L125.05 22.0579C125.07 21.9646 125.08 21.6537 125.08 21.3646C125.078 20.8671 125.072 20.8221 124.959 20.5267C124.665 19.7608 124.063 19.0541 123.428 18.731L123.225 18.6272L123.618 18.3566L124.01 18.0859L124.287 18.2985C125.01 18.855 125.577 19.6836 125.794 20.497C125.833 20.6307 125.874 20.7405 125.896 20.7405C125.965 20.7405 126.576 20.2184 126.867 19.9137C127.42 19.3333 127.898 18.5547 128.145 17.835C128.481 16.8525 128.492 15.5808 128.174 14.6688L128.069 14.3685L128.317 14.0126ZM103.619 13.6567C103.572 13.6536 103.366 14.1169 103.236 14.5242C103.046 15.1058 102.977 15.6882 103.007 16.3805C103.017 16.6904 103.056 17.0761 103.086 17.2357C103.476 19.253 104.748 20.9239 106.678 21.9541L106.68 21.959C106.948 22.1011 107.171 22.2122 107.177 22.2074C107.185 22.203 107.173 22.133 107.156 22.0436C107.153 22.0267 107.15 22.0091 107.147 21.9912C107.118 21.8699 107.108 21.5894 107.117 21.3127C107.132 20.8992 107.148 20.8034 107.253 20.5267C107.544 19.754 108.234 18.9646 108.853 18.6952L108.991 18.6334L108.596 18.359L108.2 18.0859L107.926 18.2972C107.203 18.8538 106.632 19.6868 106.417 20.4983C106.385 20.6321 106.335 20.7417 106.315 20.7417C106.247 20.7417 105.634 20.2197 105.345 19.915C104.786 19.3281 104.318 18.5667 104.067 17.835C103.727 16.8527 103.717 15.5852 104.037 14.6701L104.142 14.3685L103.895 14.0138C103.759 13.819 103.639 13.6574 103.619 13.6567ZM105.789 16.2793C105.777 16.2678 105.697 16.4947 105.607 16.7859L105.446 17.3149L104.887 17.3235L104.329 17.3334L104.765 17.6597C105.005 17.839 105.2 18.0077 105.2 18.0292C105.199 18.053 105.131 18.292 105.051 18.5594C104.972 18.8278 104.902 19.0544 104.902 19.076L104.903 19.0834C104.903 19.0999 105.097 18.9643 105.333 18.7818C105.569 18.6005 105.775 18.4506 105.785 18.4506C105.798 18.4506 105.988 18.5877 106.207 18.7546C106.426 18.9215 106.63 19.0763 106.65 19.0858C106.674 19.1014 106.617 18.8819 106.527 18.5989C106.431 18.315 106.361 18.0619 106.361 18.0403C106.361 18.0165 106.558 17.8487 106.799 17.6683L107.237 17.3396L106.68 17.3186L106.122 17.2976L105.966 16.7995C105.878 16.526 105.799 16.2888 105.789 16.2793ZM126.188 16.8241C126.277 16.5516 126.357 16.3157 126.371 16.3001C126.381 16.2786 126.47 16.5066 126.561 16.7957L126.726 17.321L127.289 17.3234C127.783 17.3253 127.842 17.333 127.777 17.3753C127.737 17.4064 127.531 17.5619 127.321 17.7226L126.938 18.0143L127.105 18.5308C127.194 18.8148 127.272 19.0605 127.272 19.0771C127.272 19.0986 127.091 18.9709 126.869 18.804C126.648 18.637 126.447 18.4869 126.421 18.4703C126.381 18.4488 126.111 18.6238 125.597 19.0239C125.527 19.0758 125.481 19.097 125.491 19.066L125.49 19.066C125.499 19.0349 125.579 18.7872 125.663 18.5135C125.753 18.2389 125.814 18.0104 125.807 18.0031C125.799 17.996 125.601 17.8438 125.364 17.6645L124.934 17.3383L125.483 17.3284L126.031 17.3197L126.188 16.8241ZM116.1 16.9219L114.774 17.2395C114.043 17.4136 113.443 17.5609 113.439 17.5633C113.413 17.5899 113.389 18.5787 113.409 18.8461L113.434 19.1872L118.768 19.1872L118.798 18.8152C118.808 18.611 118.808 18.2445 118.798 18.002L118.768 17.5608L117.435 17.2419L116.1 16.9219ZM116.151 17.1935L116.111 17.0662L116.061 17.1935C116.021 17.2992 115.991 17.3198 115.89 17.3208L115.769 17.322L115.873 17.3838C115.976 17.446 115.98 17.4777 115.912 17.6446C115.882 17.717 115.892 17.7168 115.992 17.6372L116.102 17.5544L116.215 17.6384C116.32 17.7215 116.324 17.7204 116.295 17.6446C116.225 17.4789 116.236 17.4501 116.335 17.3838L116.44 17.3221L116.316 17.3208C116.211 17.3199 116.187 17.2994 116.151 17.1935ZM115.422 17.2477L115.466 17.3845C115.507 17.5023 115.529 17.5166 115.616 17.4941C115.746 17.4682 115.754 17.5269 115.638 17.6025C115.562 17.6502 115.561 17.6729 115.594 17.7703C115.648 17.9001 115.636 17.9111 115.507 17.8245C115.422 17.7691 115.4 17.7691 115.335 17.8232L115.331 17.8193C115.211 17.9024 115.19 17.8894 115.234 17.7651C115.266 17.6729 115.266 17.6405 115.19 17.5973C115.078 17.5194 115.087 17.4652 115.212 17.4876C115.292 17.5029 115.325 17.4848 115.368 17.3767L115.422 17.2477ZM116.846 17.3843L116.796 17.258L116.757 17.3869C116.717 17.5035 116.697 17.5136 116.595 17.4955L116.478 17.474L116.58 17.5687C116.669 17.6536 116.68 17.6813 116.65 17.7683C116.61 17.8849 116.63 17.8982 116.729 17.8112L116.726 17.8099C116.785 17.757 116.795 17.7559 116.892 17.8163L116.993 17.8908L116.963 17.7658C116.943 17.6599 116.953 17.6315 117.013 17.5889C117.12 17.5149 117.112 17.472 116.993 17.4942C116.913 17.504 116.888 17.4909 116.846 17.3843ZM114.683 17.4504L114.713 17.5622C114.737 17.653 114.76 17.6752 114.877 17.6753L115.013 17.6753L114.908 17.7637C114.808 17.8454 114.809 17.8696 114.839 17.9677C114.883 18.0985 114.848 18.1204 114.769 18.0223C114.749 17.9896 114.71 17.9573 114.68 17.9573C114.66 17.9573 114.619 17.9896 114.59 18.0223L114.582 18.0223C114.509 18.1171 114.474 18.0897 114.514 17.9677C114.544 17.8716 114.533 17.8509 114.443 17.7637L114.338 17.6753L114.471 17.6753C114.583 17.674 114.613 17.6603 114.643 17.5622L114.683 17.4504ZM117.558 17.5745C117.543 17.5091 117.523 17.4751 117.505 17.4731C117.486 17.4711 117.468 17.5007 117.458 17.5639C117.449 17.631 117.418 17.6643 117.316 17.68L117.185 17.704L117.286 17.7815C117.376 17.8486 117.386 17.871 117.356 17.9616C117.306 18.1127 117.306 18.121 117.416 18.0404C117.505 17.9732 117.518 17.9734 117.608 18.0404L117.609 18.039L117.709 18.1058L117.678 17.991C117.658 17.9014 117.673 17.8523 117.739 17.7761L117.818 17.6746L117.699 17.6746C117.6 17.6746 117.577 17.652 117.558 17.5745ZM113.973 17.6148L114.023 17.7432C114.066 17.8512 114.094 17.8721 114.195 17.8729L114.316 17.8742L114.214 17.9372C114.105 18.0037 114.105 18.0266 114.175 18.223C114.185 18.2547 114.155 18.2432 114.075 18.1903C114.006 18.1326 113.945 18.1155 113.935 18.1374L113.938 18.145C113.928 18.1662 113.887 18.2087 113.847 18.2306C113.788 18.2632 113.778 18.2558 113.818 18.145C113.848 18.0426 113.848 18.0119 113.768 17.9485L113.679 17.8742L113.798 17.873C113.904 17.872 113.924 17.8551 113.944 17.7433L113.973 17.6148ZM118.273 17.7595C118.258 17.6958 118.235 17.6627 118.215 17.6608C118.194 17.6588 118.177 17.689 118.17 17.7504C118.16 17.8158 118.129 17.8481 118.027 17.8622L117.898 17.8842L117.999 17.9609C118.088 18.0262 118.098 18.0483 118.058 18.1376C118.008 18.2821 118.008 18.282 118.127 18.2029L118.128 18.2025C118.232 18.1372 118.242 18.1375 118.32 18.2129L118.332 18.2181L118.412 18.2935L118.382 18.1596C118.362 18.0485 118.372 18.012 118.441 17.9466L118.532 17.8699L118.414 17.8686C118.325 17.8675 118.292 17.8457 118.273 17.7595ZM115.675 18.374L115.714 18.487C115.748 18.5789 115.78 18.6003 115.879 18.6014L116.001 18.6027L115.899 18.6921C115.81 18.7638 115.801 18.7905 115.83 18.8788C115.877 19.0329 115.872 19.0334 115.75 18.9563C115.649 18.8879 115.64 18.8875 115.57 18.9537C115.491 19.0278 115.47 19.0173 115.506 18.888C115.536 18.7811 115.536 18.7477 115.456 18.6816L115.367 18.6041L115.481 18.6027C115.575 18.6017 115.605 18.5753 115.635 18.487L115.675 18.374ZM117.436 18.487L117.395 18.374L117.356 18.487C117.326 18.5753 117.295 18.6017 117.202 18.6027L117.088 18.6041L117.177 18.6816C117.257 18.7477 117.257 18.7811 117.227 18.888C117.19 19.0166 117.213 19.0265 117.291 18.9537C117.361 18.8875 117.371 18.8879 117.471 18.9563C117.594 19.0334 117.598 19.0329 117.551 18.8788C117.521 18.7905 117.531 18.7638 117.621 18.6921L117.722 18.6027L117.6 18.6014C117.5 18.6003 117.47 18.5789 117.436 18.487ZM113.986 18.391L114.026 18.5028C114.059 18.5923 114.091 18.6157 114.191 18.6158L114.313 18.6158L114.207 18.7029C114.108 18.7856 114.097 18.8114 114.137 18.9094L114.178 19.0238L114.067 18.9484C113.967 18.8809 113.956 18.8804 113.887 18.9458L113.894 18.9614C113.794 19.0552 113.774 19.0437 113.814 18.9185C113.844 18.828 113.834 18.7894 113.764 18.7133L113.685 18.6158L113.795 18.6158C113.886 18.6158 113.916 18.59 113.946 18.5028L113.986 18.391ZM118.267 18.4976C118.252 18.4338 118.232 18.4007 118.214 18.3988C118.195 18.3969 118.177 18.427 118.167 18.4885C118.158 18.5539 118.127 18.5861 118.026 18.6002L117.896 18.6223L117.996 18.699C118.086 18.7643 118.097 18.7864 118.057 18.8756L118.055 18.8801C118.031 18.9508 118.019 18.9856 118.028 18.9926C118.037 18.9995 118.066 18.9803 118.123 18.9426L118.126 18.9406C118.229 18.8752 118.239 18.8756 118.318 18.951L118.332 18.9562L118.412 19.0315L118.382 18.8977C118.362 18.7866 118.372 18.75 118.441 18.6847L118.532 18.608L118.411 18.6067C118.311 18.6056 118.286 18.5838 118.267 18.4976ZM114.865 18.4996C114.85 18.4346 114.83 18.4008 114.812 18.3988C114.793 18.3969 114.775 18.4263 114.765 18.4891C114.756 18.5558 114.725 18.5901 114.624 18.6045L114.494 18.627L114.595 18.7052C114.685 18.772 114.695 18.7945 114.655 18.8856C114.605 19.0358 114.605 19.0383 114.714 18.9626C114.804 18.8958 114.814 18.8959 114.904 18.9652L114.91 18.9652L115.01 19.0315L114.98 18.9015C114.96 18.8014 114.972 18.7574 115.041 18.6907L115.13 18.6124L115.01 18.611C114.91 18.6099 114.884 18.5877 114.865 18.4996ZM116.532 18.3989C116.551 18.4008 116.571 18.4346 116.586 18.4996C116.604 18.5877 116.631 18.6099 116.73 18.611L116.85 18.6124L116.761 18.6907C116.692 18.7574 116.682 18.8014 116.702 18.9015L116.732 19.0315L116.632 18.9652L116.626 18.9652C116.536 18.8959 116.526 18.8958 116.436 18.9626C116.326 19.0383 116.326 19.0358 116.375 18.8856C116.415 18.7945 116.406 18.772 116.316 18.7052L116.215 18.627L116.344 18.6045C116.446 18.5901 116.477 18.5558 116.486 18.4891C116.496 18.4263 116.513 18.3969 116.532 18.3989ZM113.465 19.6123L113.496 19.7779C113.586 20.1657 113.728 20.5892 113.872 20.926L113.881 20.9273C113.961 21.1252 114.048 21.2869 114.058 21.2869C114.065 21.2869 114.073 20.9104 114.073 20.4503L114.073 19.6124L113.769 19.6124L113.465 19.6123ZM114.252 22.2533L114.252 19.6123L114.86 19.6123L114.86 21.2276C114.86 22.1168 114.849 22.8441 114.831 22.8441C114.817 22.8441 114.682 22.7113 114.527 22.5487L114.533 22.5487L114.252 22.2533ZM115.075 19.6123L115.075 23.3087L115.356 23.4657L115.349 23.4657C115.505 23.5496 115.641 23.6226 115.653 23.6226C115.673 23.6226 115.683 22.7197 115.683 21.6169L115.683 19.6123L115.075 19.6123ZM116.722 21.6218L116.722 19.6123L117.024 19.6123L117.326 19.6123L117.326 23.3038L117.092 23.4311C116.961 23.5035 116.829 23.5756 116.791 23.5955C116.733 23.6265 116.719 23.2231 116.719 21.6218L116.722 21.6218ZM117.545 19.6123L117.545 21.2127C117.545 21.318 117.545 21.4168 117.545 21.5094C117.544 22.4019 117.544 22.7217 117.628 22.7459C117.675 22.7593 117.749 22.6805 117.863 22.5577C117.885 22.5347 117.908 22.5102 117.932 22.4844L118.153 22.2508L118.153 19.6123L117.545 19.6123ZM118.374 20.4391L118.368 19.6123L118.976 19.6123L118.928 19.7779C118.833 20.1894 118.645 20.7246 118.514 20.9841L118.37 21.2684L118.374 20.4391ZM115.903 19.6158L115.903 23.9017L116.02 23.9326L116.022 23.9326C116.188 23.9797 116.204 23.9795 116.365 23.9276L116.511 23.8868L116.511 19.6158L116.208 19.6158L115.903 19.6158ZM108.407 22.4817L108.546 22.1666L108.596 22.4879C108.675 23.0506 108.946 23.5846 109.359 24.0154C109.745 24.4165 110.154 24.5844 110.644 24.5419C111.026 24.5108 111.54 24.3043 111.847 24.0648L111.964 23.9709L112.305 24.2255L112.647 24.4789L112.544 24.5728C111.959 25.0734 111.195 25.3761 110.516 25.3761C109.87 25.3761 109.461 25.2119 108.843 24.7063C108.793 24.6649 108.803 24.7686 108.872 25.2982C108.98 26.0796 109.422 26.9443 109.992 27.4943C110.289 27.7803 110.495 27.9229 110.862 28.1011C111.795 28.5519 112.769 28.4377 113.571 27.7847C113.699 27.68 113.817 27.5956 113.834 27.5956C113.854 27.5956 113.904 27.7202 113.952 27.8737C114.242 28.8095 115.079 30.249 115.876 31.1771C115.977 31.2953 116.077 31.3974 116.098 31.4057C116.167 31.4273 116.715 30.7416 117.107 30.1452C117.628 29.3524 118.078 28.4683 118.261 27.8749C118.311 27.7216 118.362 27.5956 118.379 27.5956C118.398 27.5956 118.514 27.6781 118.642 27.7847C119.444 28.4377 120.417 28.5519 121.351 28.1011C121.718 27.9239 121.924 27.7804 122.221 27.4943C122.791 26.944 123.231 26.0799 123.339 25.2982C123.409 24.7738 123.419 24.6679 123.369 24.7063C122.751 25.212 122.343 25.3761 121.697 25.3761C121.018 25.3761 120.254 25.0733 119.669 24.5728L119.566 24.4789L119.908 24.2255L120.249 23.9722L120.366 24.0648C120.673 24.3043 121.187 24.5077 121.569 24.5419C122.059 24.5833 122.469 24.4175 122.854 24.0154C123.267 23.5843 123.534 23.0511 123.617 22.4879L123.667 22.1666L123.806 22.4817C124.116 23.1875 124.23 23.8531 124.195 24.7409C124.156 25.7524 123.929 26.5087 123.427 27.3003C123.226 27.6174 122.744 28.1544 122.449 28.3891C121.466 29.1715 120.244 29.4118 119.197 29.0305C119.02 28.9683 118.85 28.9033 118.817 28.892C118.767 28.8705 118.702 28.9756 118.522 29.332C118.198 29.9694 117.891 30.4744 117.483 31.0399C117.144 31.5115 116.412 32.3443 116.194 32.5056L116.084 32.5884L115.586 32.0657C114.851 31.2895 114.239 30.4064 113.692 29.332C113.512 28.9776 113.443 28.8754 113.396 28.892C113.366 28.9016 113.192 28.9652 113.016 29.0305C111.969 29.4119 110.747 29.1714 109.764 28.3891C109.468 28.1537 108.987 27.6178 108.786 27.3003C108.281 26.5033 108.052 25.7362 108.015 24.7198C107.985 23.8482 108.104 23.1781 108.407 22.4817ZM118.395 22.2531L118.224 22.541C118.014 22.8965 117.699 23.3018 117.454 23.5309L117.268 23.7039L117.588 24.4924C117.863 25.1734 117.924 25.2837 117.994 25.2932C118.069 25.3026 118.199 25.272 118.529 25.1684C118.589 25.1498 118.626 25.1862 118.725 25.3563C118.797 25.4725 118.846 25.5753 118.846 25.5849C118.846 25.6181 118.517 25.6912 118.361 25.6912C118.188 25.6912 118.012 25.7746 117.972 25.8679C117.933 25.9798 117.942 26.2367 118.002 26.3486C118.032 26.4077 118.103 26.4918 118.153 26.5229L118.253 26.5847L118.232 26.4327C118.223 26.3083 118.232 26.26 118.292 26.1979C118.369 26.1173 118.403 26.1151 119.438 26.1151L119.444 26.1151C120.471 26.1151 120.503 26.1151 120.582 26.1979C120.642 26.2664 120.652 26.3076 120.632 26.4537L120.618 26.4562C120.598 26.62 120.598 26.631 120.668 26.5896C120.871 26.4766 121.006 26.0209 120.901 25.8147C120.845 25.705 120.608 25.6428 120.383 25.6739C120.167 25.7028 119.762 25.6126 119.49 25.4749C119.355 25.4065 119.261 25.3197 119.161 25.1746C119.149 25.1574 119.139 25.1417 119.129 25.1273C119.077 25.052 119.049 25.0119 119.054 24.9761C119.061 24.9284 119.125 24.8887 119.268 24.7841C119.328 24.7446 119.368 24.6829 119.368 24.6518C119.368 24.6177 119.18 24.1409 118.951 23.5927C118.722 23.0445 118.504 22.5169 118.464 22.4236L118.395 22.2531ZM112.869 24.5336C112.949 24.3035 113.775 22.3537 113.8 22.3263C113.81 22.3048 113.927 22.4596 114.048 22.6575C114.171 22.8555 114.418 23.1753 114.598 23.3682C114.805 23.5899 114.919 23.7398 114.907 23.776C114.897 23.8071 114.757 24.1634 114.598 24.5645C114.4 25.0635 114.335 25.25 114.22 25.2886C114.153 25.311 114.069 25.283 113.932 25.2372C113.913 25.2308 113.893 25.224 113.871 25.217C113.741 25.1756 113.632 25.1447 113.63 25.1342C113.621 25.1332 113.354 25.5611 113.354 25.5766C113.354 25.6077 113.544 25.6494 113.833 25.6805C114.188 25.7218 114.265 25.791 114.265 26.0697C114.265 26.2749 114.196 26.4192 114.037 26.527C113.958 26.5786 113.958 26.5786 113.978 26.4254L113.978 26.4232C113.998 26.3029 113.982 26.2453 113.928 26.1871C113.868 26.1147 113.81 26.1142 112.785 26.1142L112.713 26.1142C111.91 26.1141 111.674 26.1141 111.612 26.2182C111.586 26.2616 111.59 26.3231 111.596 26.4103L111.597 26.4331C111.604 26.5366 111.6 26.6209 111.588 26.6209C111.578 26.6209 111.508 26.5485 111.431 26.4677L111.435 26.4639C111.234 26.2317 111.206 25.8981 111.375 25.7385C111.435 25.6866 111.523 25.6656 111.831 25.6656C112.231 25.6608 112.567 25.5723 112.818 25.4147C112.928 25.3423 113.167 25.0298 113.167 24.9562C113.167 24.9347 113.108 24.8944 113.034 24.8487C112.864 24.7554 112.82 24.6693 112.869 24.5336ZM115.364 24.0255C115.288 23.9737 115.214 23.9357 115.208 23.9427C115.202 23.9496 115.11 24.1916 115.003 24.4803C114.894 24.7695 114.799 25.0297 114.789 25.0513C114.771 25.0989 114.985 25.1584 115.418 25.2206L115.417 25.2243C115.902 25.2958 117.316 25.2043 117.421 25.0946C117.437 25.0775 117.046 23.9928 117.006 23.9514C116.994 23.9306 116.92 23.9712 116.841 24.0231C116.637 24.164 116.173 24.4025 116.103 24.4025C116.039 24.4025 115.588 24.1726 115.364 24.0255Z" transform="translate(19 176.8)" id="Bar" fill="#003F87" fill-rule="evenodd" stroke="none" />
    <g id="Bugler">
      <use xlink:href="#path_1" fill="none" stroke="#FFFFFF" stroke-width="2" />
      <use stroke="none" fill="#003F87" xlink:href="#path_1" fill-rule="evenodd" />
    </g>
  </g>
</svg>